<svg xmlns="http://www.w3.org/2000/svg" width="217.443" height="84.413" viewBox="0 0 217.443 84.413">
  <g id="Group_4" data-name="Group 4" transform="translate(-575.557 -201.587)">
    <rect id="Rectangle_7" data-name="Rectangle 7" width="217" height="84" transform="translate(576 202)" fill="#fff"/>
    <g id="cdr_x5F_layer2" transform="translate(575.557 201.587)">
      <g id="Group_2" data-name="Group 2" transform="translate(0 0)">
        <path id="Path_4" data-name="Path 4" d="M158.42,106.2a2.13,2.13,0,0,0-.611-1.5,1.923,1.923,0,0,0-1.415-.645,1.954,1.954,0,0,0-1.473.645,2.2,2.2,0,0,0-.611,1.591,2.131,2.131,0,0,0,.611,1.524,2,2,0,0,0,1.465.619,1.915,1.915,0,0,0,1.44-.653A2.349,2.349,0,0,0,158.42,106.2Zm0,1.875a2.306,2.306,0,0,1-.879.737,2.712,2.712,0,0,1-1.189.26,2.639,2.639,0,0,1-1.976-.812,2.946,2.946,0,0,1,.017-4.027,2.72,2.72,0,0,1,2.018-.812,2.509,2.509,0,0,1,1.147.26,2.262,2.262,0,0,1,.862.728v-.862h.67v5.391h-.67Zm6.321-1.783a2.236,2.236,0,0,0-.611-1.574,1.915,1.915,0,0,0-1.44-.653,2,2,0,0,0-1.465.619,2.1,2.1,0,0,0-.611,1.515,2.233,2.233,0,0,0,.611,1.591,1.938,1.938,0,0,0,1.473.645,1.88,1.88,0,0,0,1.415-.645A2.058,2.058,0,0,0,164.741,106.294Zm-.017-1.9v-2.6h.695v7.141h-.695v-.812a2.494,2.494,0,0,1-.9.7,2.669,2.669,0,0,1-1.147.251,2.623,2.623,0,0,1-1.967-.82,2.947,2.947,0,0,1-.008-4.018,2.814,2.814,0,0,1,3.139-.561A2.365,2.365,0,0,1,164.724,104.394Zm3.893,4.537h-.636l-2.11-5.391h.737l1.725,4.353,1.741-4.353h.753Zm3.114-2.7a2.224,2.224,0,0,0,.594,1.565,1.943,1.943,0,0,0,1.473.628,1.907,1.907,0,0,0,1.457-.628,2.216,2.216,0,0,0,.594-1.574,2.188,2.188,0,0,0-.594-1.574,2.019,2.019,0,0,0-1.515-.619,1.849,1.849,0,0,0-1.415.636A2.224,2.224,0,0,0,171.731,106.227Zm-.728.017a2.792,2.792,0,0,1,.812-2.026,2.6,2.6,0,0,1,1.925-.846,2.815,2.815,0,0,1,2.821,2.8,2.869,2.869,0,0,1-.812,2.059,2.606,2.606,0,0,1-1.967.854,2.657,2.657,0,0,1-1.984-.837A2.871,2.871,0,0,1,171,106.244Zm7.3,3.131a1.388,1.388,0,0,0,.569.737,1.822,1.822,0,0,0,1,.26,1.918,1.918,0,0,0,1.482-.611,2.348,2.348,0,0,0,.561-1.641v-.142a2.7,2.7,0,0,1-.9.8,2.249,2.249,0,0,1-1.105.268,2.707,2.707,0,0,1-2.018-.812,2.764,2.764,0,0,1-.8-2.026,2.713,2.713,0,0,1,.8-2,2.634,2.634,0,0,1,1.967-.812,2.661,2.661,0,0,1,1.172.243,2.473,2.473,0,0,1,.887.77v-.887h.67v4.5a3.189,3.189,0,0,1-.712,2.21,2.481,2.481,0,0,1-1.951.8,2.7,2.7,0,0,1-1.574-.452,2.035,2.035,0,0,1-.846-1.214h.8Zm-.477-3.181a2.227,2.227,0,0,0,.6,1.591,1.949,1.949,0,0,0,1.448.636,1.9,1.9,0,0,0,1.415-.636,2.1,2.1,0,0,0,.611-1.5,2.229,2.229,0,0,0-.6-1.574,1.88,1.88,0,0,0-1.423-.653,1.963,1.963,0,0,0-1.448.619A2.05,2.05,0,0,0,177.826,106.193Zm10.4.008a2.13,2.13,0,0,0-.611-1.5,1.923,1.923,0,0,0-1.415-.645,1.954,1.954,0,0,0-1.473.645,2.2,2.2,0,0,0-.611,1.591,2.131,2.131,0,0,0,.611,1.524,2,2,0,0,0,1.465.619,1.915,1.915,0,0,0,1.44-.653A2.349,2.349,0,0,0,188.223,106.2Zm0,1.875a2.306,2.306,0,0,1-.879.737,2.713,2.713,0,0,1-1.189.26,2.639,2.639,0,0,1-1.976-.812,2.946,2.946,0,0,1,.017-4.027,2.72,2.72,0,0,1,2.018-.812,2.509,2.509,0,0,1,1.147.26,2.262,2.262,0,0,1,.862.728v-.862h.67v5.391h-.67Zm6.32-1.783a2.236,2.236,0,0,0-.611-1.574,1.915,1.915,0,0,0-1.44-.653,2,2,0,0,0-1.465.619,2.1,2.1,0,0,0-.611,1.515,2.233,2.233,0,0,0,.611,1.591,1.938,1.938,0,0,0,1.473.645,1.88,1.88,0,0,0,1.415-.645A2.091,2.091,0,0,0,194.544,106.294Zm-.017-1.9v-2.6h.695v7.141h-.695v-.812a2.494,2.494,0,0,1-.9.7,2.669,2.669,0,0,1-1.147.251,2.623,2.623,0,0,1-1.967-.82,2.947,2.947,0,0,1-.008-4.018,2.814,2.814,0,0,1,3.139-.561A2.431,2.431,0,0,1,194.527,104.394Zm2.21,1.833a2.224,2.224,0,0,0,.594,1.565,1.943,1.943,0,0,0,1.473.628,1.907,1.907,0,0,0,1.457-.628,2.216,2.216,0,0,0,.594-1.574,2.188,2.188,0,0,0-.594-1.574,2.019,2.019,0,0,0-1.515-.619,1.849,1.849,0,0,0-1.415.636A2.224,2.224,0,0,0,196.737,106.227Zm-.72.017a2.792,2.792,0,0,1,.812-2.026,2.6,2.6,0,0,1,1.925-.846,2.815,2.815,0,0,1,2.821,2.8,2.869,2.869,0,0,1-.812,2.059,2.606,2.606,0,0,1-1.967.854,2.657,2.657,0,0,1-1.984-.837A2.835,2.835,0,0,1,196.017,106.244Zm6.028.988h.712v.017a1.224,1.224,0,0,0,.285.837.938.938,0,0,0,.72.326.971.971,0,0,0,.678-.251.858.858,0,0,0,.268-.645.868.868,0,0,0-.209-.619,1.936,1.936,0,0,0-.77-.444,2.925,2.925,0,0,1-1.172-.653,1.348,1.348,0,0,1-.276-.9,1.442,1.442,0,0,1,.452-1.072,1.562,1.562,0,0,1,1.113-.444,1.424,1.424,0,0,1,1.532,1.482h-.737a.9.9,0,0,0-.243-.594.806.806,0,0,0-.594-.209.786.786,0,0,0-.8.8.9.9,0,0,0,.092.41.809.809,0,0,0,.31.293,2.383,2.383,0,0,0,.569.234c.251.075.419.134.5.167a1.656,1.656,0,0,1,.745.569,1.626,1.626,0,0,1,.243.912,1.523,1.523,0,0,1-.486,1.147,1.7,1.7,0,0,1-1.231.46,1.6,1.6,0,0,1-1.222-.494A1.911,1.911,0,0,1,202.044,107.232Zm11.645-1.03a2.1,2.1,0,0,0-.611-1.5,1.91,1.91,0,0,0-1.415-.645,1.954,1.954,0,0,0-1.473.645,2.2,2.2,0,0,0-.611,1.591,2.159,2.159,0,0,0,.6,1.524,2,2,0,0,0,1.465.619,1.885,1.885,0,0,0,1.432-.653A2.248,2.248,0,0,0,213.689,106.2Zm0,1.875a2.246,2.246,0,0,1-.879.737,2.713,2.713,0,0,1-1.189.26,2.639,2.639,0,0,1-1.976-.812,2.946,2.946,0,0,1,.017-4.027,2.707,2.707,0,0,1,2.018-.812,2.509,2.509,0,0,1,1.147.26,2.262,2.262,0,0,1,.862.728v-.862h.678v5.391h-.678Zm1.423-.846h.712v.017a1.224,1.224,0,0,0,.285.837.914.914,0,0,0,.72.326.971.971,0,0,0,.678-.251.858.858,0,0,0,.268-.645.868.868,0,0,0-.209-.619,1.936,1.936,0,0,0-.77-.444,2.925,2.925,0,0,1-1.172-.653,1.348,1.348,0,0,1-.276-.9,1.419,1.419,0,0,1,.46-1.072,1.562,1.562,0,0,1,1.113-.444,1.424,1.424,0,0,1,1.532,1.482h-.737a.942.942,0,0,0-.243-.594.806.806,0,0,0-.594-.209.786.786,0,0,0-.8.8.9.9,0,0,0,.092.41.845.845,0,0,0,.3.293,2.542,2.542,0,0,0,.569.234c.251.075.419.134.5.167a1.656,1.656,0,0,1,.745.569,1.626,1.626,0,0,1,.243.912,1.523,1.523,0,0,1-.486,1.147,1.7,1.7,0,0,1-1.231.46,1.6,1.6,0,0,1-1.222-.494A1.911,1.911,0,0,1,215.112,107.232Zm3.91,0h.712v.017a1.224,1.224,0,0,0,.285.837.926.926,0,0,0,.72.326.971.971,0,0,0,.678-.251.858.858,0,0,0,.268-.645.869.869,0,0,0-.209-.619,1.936,1.936,0,0,0-.77-.444,2.925,2.925,0,0,1-1.172-.653,1.348,1.348,0,0,1-.276-.9,1.419,1.419,0,0,1,.46-1.072,1.562,1.562,0,0,1,1.113-.444,1.424,1.424,0,0,1,1.532,1.482h-.737a.9.9,0,0,0-.243-.594.806.806,0,0,0-.594-.209.786.786,0,0,0-.8.8.9.9,0,0,0,.092.41.809.809,0,0,0,.31.293,2.383,2.383,0,0,0,.569.234c.251.075.419.134.5.167a1.656,1.656,0,0,1,.745.569,1.626,1.626,0,0,1,.243.912,1.523,1.523,0,0,1-.486,1.147,1.7,1.7,0,0,1-1.231.46,1.6,1.6,0,0,1-1.222-.494A1.878,1.878,0,0,1,219.022,107.232Zm4.68-1a2.224,2.224,0,0,0,.594,1.565,1.943,1.943,0,0,0,1.473.628,1.907,1.907,0,0,0,1.457-.628,2.216,2.216,0,0,0,.594-1.574,2.188,2.188,0,0,0-.594-1.574,2.019,2.019,0,0,0-1.515-.619,1.849,1.849,0,0,0-1.415.636A2.224,2.224,0,0,0,223.7,106.227Zm-.72.017a2.792,2.792,0,0,1,.812-2.026,2.6,2.6,0,0,1,1.925-.846,2.815,2.815,0,0,1,2.821,2.8,2.869,2.869,0,0,1-.812,2.059,2.606,2.606,0,0,1-1.967.854,2.657,2.657,0,0,1-1.984-.837A2.835,2.835,0,0,1,222.982,106.244Zm10.69-1.046a2.216,2.216,0,0,0-.779-.871,2.01,2.01,0,0,0-1.088-.285,1.825,1.825,0,0,0-1.415.636,2.24,2.24,0,0,0-.586,1.565,2.183,2.183,0,0,0,.586,1.557,1.894,1.894,0,0,0,1.448.619,1.962,1.962,0,0,0,1.105-.31,1.984,1.984,0,0,0,.737-.871h.762a2.775,2.775,0,0,1-.988,1.365,2.82,2.82,0,0,1-3.566-.352,2.913,2.913,0,0,1,.008-4.027,2.707,2.707,0,0,1,1.992-.837,2.613,2.613,0,0,1,1.549.477,2.855,2.855,0,0,1,1,1.331Zm2.47-2.294h-.695V101.79h.695Zm-.695,6.028V103.54h.695v5.391Zm6.371-2.729a2.13,2.13,0,0,0-.611-1.5,1.923,1.923,0,0,0-1.415-.645,1.954,1.954,0,0,0-1.473.645,2.2,2.2,0,0,0-.611,1.591,2.131,2.131,0,0,0,.611,1.524,2,2,0,0,0,1.465.619,1.915,1.915,0,0,0,1.44-.653A2.349,2.349,0,0,0,241.818,106.2Zm0,1.875a2.307,2.307,0,0,1-.879.737,2.712,2.712,0,0,1-1.189.26,2.639,2.639,0,0,1-1.976-.812,2.946,2.946,0,0,1,.017-4.027,2.72,2.72,0,0,1,2.018-.812,2.509,2.509,0,0,1,1.147.26,2.262,2.262,0,0,1,.862.728v-.862h.67v5.391h-.67Zm6.32-1.783a2.236,2.236,0,0,0-.611-1.574,1.915,1.915,0,0,0-1.44-.653,2,2,0,0,0-1.465.619,2.1,2.1,0,0,0-.611,1.515,2.233,2.233,0,0,0,.611,1.591,1.938,1.938,0,0,0,1.473.645,1.88,1.88,0,0,0,1.415-.645A2.091,2.091,0,0,0,248.138,106.294Zm-.017-1.9v-2.6h.695v7.141h-.695v-.812a2.494,2.494,0,0,1-.9.7,2.669,2.669,0,0,1-1.147.251,2.623,2.623,0,0,1-1.967-.82,2.947,2.947,0,0,1-.008-4.018,2.814,2.814,0,0,1,3.139-.561A2.431,2.431,0,0,1,248.121,104.394Zm2.21,1.833a2.224,2.224,0,0,0,.594,1.565,1.943,1.943,0,0,0,1.473.628,1.907,1.907,0,0,0,1.457-.628,2.216,2.216,0,0,0,.594-1.574,2.188,2.188,0,0,0-.594-1.574,2.019,2.019,0,0,0-1.515-.619,1.849,1.849,0,0,0-1.415.636A2.224,2.224,0,0,0,250.332,106.227Zm-.72.017a2.792,2.792,0,0,1,.812-2.026,2.6,2.6,0,0,1,1.925-.846,2.815,2.815,0,0,1,2.821,2.8,2.869,2.869,0,0,1-.812,2.059,2.606,2.606,0,0,1-1.967.854,2.657,2.657,0,0,1-1.984-.837A2.835,2.835,0,0,1,249.612,106.244Zm6.027.988h.712v.017a1.224,1.224,0,0,0,.285.837.926.926,0,0,0,.72.326.971.971,0,0,0,.678-.251.858.858,0,0,0,.268-.645.868.868,0,0,0-.209-.619,1.937,1.937,0,0,0-.77-.444,2.925,2.925,0,0,1-1.172-.653,1.348,1.348,0,0,1-.276-.9,1.419,1.419,0,0,1,.46-1.072,1.562,1.562,0,0,1,1.113-.444,1.424,1.424,0,0,1,1.532,1.482h-.737a.9.9,0,0,0-.243-.594.806.806,0,0,0-.594-.209.786.786,0,0,0-.8.8.9.9,0,0,0,.092.41.809.809,0,0,0,.31.293,2.383,2.383,0,0,0,.569.234c.251.075.419.134.5.167a1.656,1.656,0,0,1,.745.569,1.626,1.626,0,0,1,.243.912,1.523,1.523,0,0,1-.486,1.147,1.7,1.7,0,0,1-1.231.46,1.6,1.6,0,0,1-1.222-.494A1.878,1.878,0,0,1,255.639,107.232Z" transform="translate(-44.425 -32.39)" fill="#78797a" fill-rule="evenodd"/>
        <path id="Path_5" data-name="Path 5" d="M162.65,65.2v-.712c.059,0,.193.033.41.075a1.909,1.909,0,0,0,1.708-1.406c1.783-4.437,2.738-7.56,2.888-9.359.285-.042.494-.067.636-.084a3.6,3.6,0,0,0,.477-.117,4.576,4.576,0,0,0,.569-.243c.846,2.495,1.406,4.161,1.683,4.973.276.829.6,1.7.971,2.645.293.829.519,1.482.7,1.976a5.309,5.309,0,0,0,.5,1.113.672.672,0,0,0,.569.377h.871v.636c-.578-.033-1.348-.042-2.3-.042-.536,0-1.457.033-2.771.075v-.678l1.03.033c.536,0,.8-.184.8-.536,0-.025-.008-.084-.017-.151s-.017-.117-.017-.134l-.946-2.83h-3.851l-.988,2.562c-.025.126-.067.3-.117.5,0,.377.36.586,1.063.636a6.775,6.775,0,0,1,.753-.075v.753c-1.113-.109-1.875-.159-2.3-.159C164.483,65.043,163.7,65.094,162.65,65.2Zm5.718-10.23-1.549,5.14h3.315ZM178.447,53.4l8.388,9.359-.368-7.568a1.281,1.281,0,0,0-.176-.82.76.76,0,0,0-.578-.184h-1.256l.042-.787c.728.075,1.49.134,2.3.176q1.344-.063,2.461-.176v.753h-.871a.835.835,0,0,0-.661.209,1.067,1.067,0,0,0-.176.695l-.042,10.414h-.444l-9.092-10.322.042,7.216a3.739,3.739,0,0,0,.251,1.549,1.074,1.074,0,0,0,1.08.527h.837v.678a15.918,15.918,0,0,0-2.419-.151,22.325,22.325,0,0,0-2.386.117v-.712h.678c.435,0,.728-.117.854-.36a2.328,2.328,0,0,0,.193-1.072v-7.76a1.58,1.58,0,0,0-.176-.862.837.837,0,0,0-.72-.251H175.4v-.712a13.936,13.936,0,0,0,1.565.176C177.736,53.474,178.221,53.424,178.447,53.4Zm11.988.67h-.31v-.712c.753.067,1.473.117,2.168.134.385-.008.971-.025,1.766-.075s1.54-.059,2.244-.059a7.2,7.2,0,0,1,2.637.452,5.217,5.217,0,0,1,1.909,1.264,5.419,5.419,0,0,1,1.155,1.9,6.775,6.775,0,0,1,.385,2.319,7.68,7.68,0,0,1-.368,2.378,5.713,5.713,0,0,1-1.13,1.976,5.189,5.189,0,0,1-1.9,1.348,6.9,6.9,0,0,1-2.645.477,13.532,13.532,0,0,1-1.515-.109c-.578-.067-1.164-.142-1.741-.209a13.53,13.53,0,0,0-1.507-.109,10.02,10.02,0,0,0-1.457.117v-.753h.946a1.034,1.034,0,0,0,.7-.251.848.848,0,0,0,.285-.653V56.957a12.965,12.965,0,0,0-.109-1.967,1.007,1.007,0,0,0-.427-.753A2.569,2.569,0,0,0,190.435,54.068Zm3.064.117v8.263a2.139,2.139,0,0,0,.661,1.691,3.213,3.213,0,0,0,2.151.578,4.746,4.746,0,0,0,2.018-.469,3.81,3.81,0,0,0,1.365-1.113,4.784,4.784,0,0,0,.779-1.607,7.431,7.431,0,0,0,.26-1.925,5.939,5.939,0,0,0-.368-2.1,5.517,5.517,0,0,0-1.055-1.775,4.991,4.991,0,0,0-3.826-1.658h-.469Zm12.917,4.663c.084.008.209.025.385.042a2.369,2.369,0,0,1,.368.042,3.872,3.872,0,0,0,1.49-.293,2.22,2.22,0,0,0,.988-.787A2.057,2.057,0,0,0,210,56.638a2.872,2.872,0,0,0-.226-1.03,2.512,2.512,0,0,0-.787-1.013,2.225,2.225,0,0,0-1.457-.444c-.142,0-.377.008-.686.017s-.452.017-.435.017v4.663Zm1.432.594h-1.473v3.273a1.949,1.949,0,0,0,.3,1.18,1.358,1.358,0,0,0,1.1.435h.678v.753a23.315,23.315,0,0,0-2.344-.151c-.276,0-.6.008-.946.025-.36.017-.779.059-1.272.092s-.787.067-.846.067v-.678h1.088a.75.75,0,0,0,.72-.36,2.622,2.622,0,0,0,.193-1.147V56.864c0-1.482-.142-2.352-.444-2.62-.075-.109-.268-.151-.578-.151h-.829v-.712c.285.025.561.059.829.067s.561.008.862.017.536.008.712.008a16.89,16.89,0,0,0,2.151-.1,4.163,4.163,0,0,1,.5-.033,3.234,3.234,0,0,1,1.532.368,2.819,2.819,0,0,1,1.13,1.013,2.652,2.652,0,0,1,.419,1.432,3.086,3.086,0,0,1-.486,1.725,2.911,2.911,0,0,1-1.4,1.105,29.86,29.86,0,0,0,5.04,7.183l-.578.326a19.633,19.633,0,0,1-1.775-1.624c-.578-.6-1.147-1.239-1.683-1.909s-1-1.272-1.406-1.808S208.258,60.046,207.848,59.443Zm6.538,5.76v-.712c.059,0,.193.033.41.075A1.909,1.909,0,0,0,216.5,63.16c1.783-4.437,2.738-7.56,2.888-9.359.276-.042.494-.067.636-.084a3.6,3.6,0,0,0,.477-.117,4.578,4.578,0,0,0,.569-.243c.846,2.495,1.406,4.161,1.683,4.973.276.829.6,1.7.971,2.645.293.829.519,1.482.7,1.976a5.31,5.31,0,0,0,.5,1.113.672.672,0,0,0,.569.377h.871v.636c-.578-.033-1.348-.042-2.3-.042-.536,0-1.457.033-2.771.075v-.678l1.03.033c.536,0,.8-.184.8-.536,0-.025-.008-.084-.017-.151s-.017-.117-.017-.134l-.946-2.83H218.3l-.988,2.562c-.033.126-.067.3-.117.5,0,.377.36.586,1.063.636a6.776,6.776,0,0,1,.753-.075v.753c-1.113-.109-1.875-.159-2.3-.159C216.219,65.043,215.441,65.094,214.386,65.2Zm5.718-10.23-1.549,5.14h3.315Zm7.35-.9h-.31v-.712c.753.067,1.473.117,2.168.134.385-.008.971-.025,1.766-.075s1.54-.059,2.244-.059a7.2,7.2,0,0,1,2.637.452,5.217,5.217,0,0,1,1.909,1.264,5.3,5.3,0,0,1,1.155,1.9,6.775,6.775,0,0,1,.385,2.319,7.68,7.68,0,0,1-.368,2.378,5.713,5.713,0,0,1-1.13,1.976,5.189,5.189,0,0,1-1.9,1.348,6.9,6.9,0,0,1-2.645.477,13.532,13.532,0,0,1-1.515-.109c-.578-.067-1.164-.142-1.741-.209a13.4,13.4,0,0,0-1.507-.109,9.929,9.929,0,0,0-1.457.117v-.753h.946a1.056,1.056,0,0,0,.712-.251.848.848,0,0,0,.285-.653V56.957a12.965,12.965,0,0,0-.109-1.967,1.007,1.007,0,0,0-.427-.753A2.64,2.64,0,0,0,227.454,54.068Zm3.056.117v8.263a2.112,2.112,0,0,0,.661,1.691,3.213,3.213,0,0,0,2.151.578,4.746,4.746,0,0,0,2.018-.469,3.81,3.81,0,0,0,1.365-1.113,4.784,4.784,0,0,0,.779-1.607,7.431,7.431,0,0,0,.26-1.925,5.94,5.94,0,0,0-.368-2.1,5.518,5.518,0,0,0-1.055-1.775,4.991,4.991,0,0,0-3.826-1.658h-.46Zm9.51-.117v-.712c1.18.067,2.545.117,4.085.134,1.54-.017,2.913-.067,4.127-.134l.134,2.654-.678.042-.075-.712a.994.994,0,0,0-.435-.846,2.027,2.027,0,0,0-1.038-.234H243.6v4.5l2.888-.075a1.85,1.85,0,0,0,.728-.176c.167-.084.243-.3.243-.619v-.519h.661a12.067,12.067,0,0,1-.042,1.231c.05.854.084,1.574.117,2.177h-.7V60.1c0-.452-.3-.678-.887-.678l-2.922-.075v3.123a4.141,4.141,0,0,0,.075.938.974.974,0,0,0,.343.578,1.278,1.278,0,0,0,.8.218H246.9a1.345,1.345,0,0,0,1.314-.653A3.448,3.448,0,0,0,248.6,62h.72l-.368,3.123c-1.842-.109-3.2-.151-4.085-.151-1.423,0-3.031.067-4.839.193v-.753h1.122a1.1,1.1,0,0,0,.979-.36,1.913,1.913,0,0,0,.243-1.105V57.074a14.285,14.285,0,0,0-.092-1.875,1.413,1.413,0,0,0-.444-.971c-.092-.109-.377-.151-.9-.151h-.921Z" transform="translate(-45.9 -24.5)" fill="#173319" fill-rule="evenodd"/>
        <path id="Path_6" data-name="Path 6" d="M23.19,18.89h108.5V86.624H23.19Zm2.737,40.7v-.712c.059,0,.193.033.41.075a1.909,1.909,0,0,0,1.708-1.406c1.783-4.437,2.737-7.56,2.888-9.359.285-.042.494-.067.636-.084a3.946,3.946,0,0,0,.477-.117,4.1,4.1,0,0,0,.569-.243c.846,2.495,1.406,4.161,1.683,4.973.285.829.6,1.7.971,2.645.293.829.519,1.482.7,1.976a5.309,5.309,0,0,0,.5,1.113.682.682,0,0,0,.569.377h.871v.636c-.578-.033-1.348-.042-2.3-.042-.536,0-1.457.033-2.771.075v-.678l1.03.033c.536,0,.8-.184.8-.536,0-.025-.008-.084-.017-.151s-.017-.117-.017-.134l-.946-2.83H29.829l-.988,2.562c-.025.126-.067.3-.117.5,0,.377.36.586,1.063.636a6.776,6.776,0,0,1,.753-.075v.753c-1.113-.109-1.875-.159-2.3-.159C27.761,59.433,26.982,59.484,25.927,59.592Zm5.718-10.23L30.1,54.5h3.315Zm19.146.042L47.133,59.475h-.519L41.942,49.329l-.486,7.97a.447.447,0,0,1-.042.209c.059.854.352,1.289.871,1.289h.837v.678a21.051,21.051,0,0,0-2.227-.117,19.342,19.342,0,0,0-2.21.117v-.712h.871a1.393,1.393,0,0,0,.594-.109.727.727,0,0,0,.3-.41,4.446,4.446,0,0,0,.134-.9l.6-8.012c0-.025.008-.084.017-.159a2.062,2.062,0,0,0,.017-.218c0-.318-.184-.486-.561-.486h-.8v-.712a12.314,12.314,0,0,0,1.549.176,15.49,15.49,0,0,0,1.591-.176c.184.686.368,1.281.561,1.792.393.9.854,1.934,1.365,3.089s.988,2.244,1.432,3.223.67,1.5.686,1.524q.1-.213.377-.954c.193-.486.469-1.2.812-2.126.36-.938.653-1.716.871-2.327.234-.619.477-1.3.745-2.043.117-.352.31-1.08.561-2.218a14.194,14.194,0,0,0,1.783.209,15.573,15.573,0,0,0,1.624-.176V48.5h-.871a.952.952,0,0,0-.628.176.821.821,0,0,0-.2.653l1.03,7.7c.042.343.075.636.126.862a1.584,1.584,0,0,0,.3.636.767.767,0,0,0,.661.31h.753v.678c-1.206-.109-2.093-.151-2.671-.151q-.741,0-2.386.151v-.712h.854c.712,0,1.063-.318,1.063-.946v-.343Zm4.981,10.188v-.712c.059,0,.193.033.41.075A1.909,1.909,0,0,0,57.89,57.55c1.783-4.437,2.737-7.56,2.888-9.359.285-.042.494-.067.636-.084a3.945,3.945,0,0,0,.477-.117,4.1,4.1,0,0,0,.569-.243c.846,2.495,1.406,4.161,1.683,4.973.285.829.6,1.7.971,2.645.293.829.519,1.482.712,1.976a5.309,5.309,0,0,0,.5,1.113.672.672,0,0,0,.569.377h.871v.636c-.578-.033-1.348-.042-2.3-.042-.536,0-1.457.033-2.771.075v-.678l1.03.033c.536,0,.8-.184.8-.536,0-.025-.008-.084-.017-.151s-.017-.117-.017-.134l-.946-2.83H59.69L58.7,57.767c-.033.126-.067.3-.117.5,0,.377.36.586,1.063.636a6.776,6.776,0,0,1,.753-.075v.753c-1.113-.109-1.875-.159-2.3-.159C57.6,59.433,56.827,59.484,55.772,59.592Zm5.709-10.23L59.933,54.5h3.315Zm10.28,3.876c.084.008.209.025.385.042a2.369,2.369,0,0,1,.368.042,3.872,3.872,0,0,0,1.49-.293,2.22,2.22,0,0,0,.988-.787,2.057,2.057,0,0,0,.352-1.214A2.872,2.872,0,0,0,75.119,50a2.441,2.441,0,0,0-.787-1.013,2.225,2.225,0,0,0-1.457-.444c-.142,0-.377.008-.686.017s-.452.017-.435.017v4.663Zm1.432.594H71.72v3.273a1.893,1.893,0,0,0,.3,1.18,1.358,1.358,0,0,0,1.1.435H73.8v.753a23.315,23.315,0,0,0-2.344-.151c-.285,0-.6.008-.946.025-.36.017-.779.059-1.272.092s-.787.067-.846.067v-.678h1.088a.75.75,0,0,0,.72-.36,2.622,2.622,0,0,0,.193-1.147V51.254c0-1.482-.142-2.352-.444-2.62-.075-.109-.268-.151-.578-.151H68.53v-.712c.276.025.561.059.837.067s.561.008.862.017.536.008.7.008a16.89,16.89,0,0,0,2.151-.1,4.163,4.163,0,0,1,.5-.033,3.234,3.234,0,0,1,1.532.368,2.819,2.819,0,0,1,1.13,1.013,2.652,2.652,0,0,1,.419,1.432,3.086,3.086,0,0,1-.486,1.725,2.911,2.911,0,0,1-1.4,1.105,29.628,29.628,0,0,0,5.04,7.183l-.578.326a19.632,19.632,0,0,1-1.775-1.624c-.578-.6-1.147-1.239-1.683-1.909s-1-1.272-1.406-1.808S73.6,54.436,73.193,53.833Zm6.538,5.76v-.712c.059,0,.193.033.41.075a1.909,1.909,0,0,0,1.708-1.406c1.783-4.437,2.737-7.56,2.888-9.359.285-.042.494-.067.636-.084a3.6,3.6,0,0,0,.477-.117,4.1,4.1,0,0,0,.569-.243c.846,2.495,1.406,4.161,1.683,4.973.276.829.6,1.7.971,2.645.293.829.519,1.482.7,1.976a5.31,5.31,0,0,0,.5,1.113.672.672,0,0,0,.569.377h.871v.636c-.578-.033-1.348-.042-2.3-.042-.536,0-1.448.033-2.771.075v-.678l1.03.033c.536,0,.8-.184.8-.536,0-.025-.008-.084-.017-.151s-.017-.117-.017-.134l-.946-2.83H83.633l-.988,2.562c-.025.126-.067.3-.117.5,0,.377.36.586,1.063.636a6.776,6.776,0,0,1,.753-.075v.753c-1.113-.109-1.875-.159-2.3-.159C81.556,59.433,80.786,59.484,79.731,59.592Zm5.709-10.23L83.892,54.5h3.315ZM101,58.2a1.946,1.946,0,0,0,.536-.946,3.585,3.585,0,0,0,.184-.829l.8.293a17.626,17.626,0,0,0-.829,2.754c-1.482-.075-3.131-.117-4.922-.117-1.582,0-2.964.033-4.161.117v-.712h.829a.923.923,0,0,0,.854-.36,2.147,2.147,0,0,0,.209-1.072V50.978a9.814,9.814,0,0,0-.084-1.457,1.362,1.362,0,0,0-.36-.82c-.126-.142-.486-.209-1.063-.209h-.385v-.753c.335.059,1.247.117,2.729.176,1.482-.059,2.386-.092,2.7-.134v.753h-.946c-.829,0-1.256.569-1.256,1.691v5.852a5.5,5.5,0,0,0,.134,1.339,1.293,1.293,0,0,0,.393.695,1.7,1.7,0,0,0,.686.335,10.128,10.128,0,0,0,1.9.268A3.4,3.4,0,0,0,101,58.2Zm7.225-9.744h-.31v-.712c.753.067,1.473.117,2.168.134.385-.008.971-.025,1.766-.075s1.54-.059,2.244-.059a7.2,7.2,0,0,1,2.637.452,5.217,5.217,0,0,1,1.909,1.264,5.419,5.419,0,0,1,1.155,1.9,6.775,6.775,0,0,1,.385,2.319,7.68,7.68,0,0,1-.368,2.378,5.713,5.713,0,0,1-1.13,1.976,5.189,5.189,0,0,1-1.9,1.348,6.9,6.9,0,0,1-2.645.477,13.531,13.531,0,0,1-1.515-.109c-.578-.067-1.164-.142-1.741-.209a13.529,13.529,0,0,0-1.515-.109,9.93,9.93,0,0,0-1.457.117V58.8h.946a1.02,1.02,0,0,0,.7-.251.848.848,0,0,0,.285-.653V51.346a12.965,12.965,0,0,0-.109-1.967,1.033,1.033,0,0,0-.427-.753A2.447,2.447,0,0,0,108.228,48.458Zm3.064.117v8.263a2.139,2.139,0,0,0,.661,1.691,3.213,3.213,0,0,0,2.151.578,4.746,4.746,0,0,0,2.018-.469,3.81,3.81,0,0,0,1.365-1.113,4.784,4.784,0,0,0,.779-1.607,7.431,7.431,0,0,0,.26-1.925,5.939,5.939,0,0,0-.368-2.1,5.517,5.517,0,0,0-1.055-1.775,4.991,4.991,0,0,0-3.826-1.658h-.46Zm9.51-.117v-.712c1.18.067,2.545.117,4.085.134,1.54-.017,2.913-.067,4.127-.134l.134,2.654-.678.042-.075-.712a.975.975,0,0,0-.435-.846,2.027,2.027,0,0,0-1.038-.234h-2.537v4.5l2.888-.075A1.85,1.85,0,0,0,128,52.9c.167-.084.243-.3.243-.619v-.519h.661A12.058,12.058,0,0,1,128.864,53c.05.854.084,1.574.117,2.177h-.695v-.678c0-.452-.3-.678-.9-.678l-2.922-.075v3.123a4.142,4.142,0,0,0,.075.938,1.007,1.007,0,0,0,.335.578,1.278,1.278,0,0,0,.8.218h1.992a1.345,1.345,0,0,0,1.314-.653,3.448,3.448,0,0,0,.385-1.557h.72l-.368,3.123c-1.842-.109-3.2-.151-4.085-.151-1.423,0-3.03.067-4.839.193V58.8h1.122a1.1,1.1,0,0,0,.979-.36,1.913,1.913,0,0,0,.243-1.105V51.464a12.777,12.777,0,0,0-.1-1.875,1.379,1.379,0,0,0-.444-.971c-.084-.109-.377-.151-.9-.151h-.9Z" transform="translate(-23.19 -18.89)" fill="#173319" fill-rule="evenodd"/>
      </g>
    </g>
  </g>
</svg>
