<svg width="17" height="17" viewBox="0 0 17 17" fill="none" xmlns="http://www.w3.org/2000/svg">
<path d="M13.5 3.3999H2.70001C1.95751 3.3999 1.35676 4.0074 1.35676 4.7499L1.35001 12.8499C1.35001 13.5924 1.95751 14.1999 2.70001 14.1999H13.5C14.2425 14.1999 14.85 13.5924 14.85 12.8499V4.7499C14.85 4.0074 14.2425 3.3999 13.5 3.3999ZM13.23 6.26865L8.45776 9.25215C8.24176 9.38715 7.95826 9.38715 7.74226 9.25215L2.97001 6.26865C2.80126 6.16065 2.70001 5.9784 2.70001 5.78265C2.70001 5.3304 3.19276 5.0604 3.57751 5.29665L8.10001 8.1249L12.6225 5.29665C13.0073 5.0604 13.5 5.3304 13.5 5.78265C13.5 5.9784 13.3988 6.16065 13.23 6.26865Z" fill="url(#paint0_linear_147_37)"/>
<defs>
<linearGradient id="paint0_linear_147_37" x1="8.10001" y1="3.3999" x2="8.10001" y2="14.1999" gradientUnits="userSpaceOnUse">
<stop stop-color="#0EA5E9"/>
<stop offset="1" stop-color="#0A77A8"/>
</linearGradient>
</defs>
</svg>
