<svg width="100" height="100" viewBox="0 0 100 100" fill="none" xmlns="http://www.w3.org/2000/svg">
<rect width="100" height="100" rx="18.3709" fill="#E0F2FE"/>
<path d="M72.4405 28.2474C67.3508 23.1577 60.8141 20.0494 53.7737 19.2719L57.4006 16.3922L55.5112 14L47.8315 20.0801L53.9116 27.7598L56.3024 25.8699L53.4837 22.3041C59.8227 23.005 65.7043 25.8091 70.2909 30.3957C75.6239 35.7286 78.5655 42.8302 78.5655 50.3878C78.5655 51.8358 78.4588 53.283 78.2301 54.7156L81.2474 55.173C81.4916 53.5883 81.613 51.9881 81.613 50.3885C81.613 42.0228 78.3523 34.1593 72.4398 28.2466L72.4405 28.2474Z" fill="#0EA5E9"/>
<path d="M66.2373 73.7326L67.9589 76.2468C69.2693 75.3475 70.5342 74.3423 71.7071 73.245L69.6194 71.0204C68.5537 72.0109 67.4264 72.9249 66.2373 73.7326H66.2373Z" fill="#0EA5E9"/>
<path d="M61.1639 76.475L62.3375 79.2936C63.8157 78.684 65.2482 77.953 66.6197 77.1147L65.035 74.5092C63.8003 75.271 62.5053 75.9262 61.1639 76.4748V76.475Z" fill="#0EA5E9"/>
<path d="M55.6469 78.136L56.2109 81.1224C57.7802 80.818 59.3349 80.4062 60.8431 79.8576L59.8224 76.9926C58.4663 77.4963 57.0486 77.8772 55.6469 78.136V78.136Z" fill="#0EA5E9"/>
<path d="M76.7812 60.2918L79.6308 61.3581C80.1948 59.8645 80.6368 58.3106 80.9566 56.7406L77.9702 56.131C77.6805 57.534 77.2841 58.9357 76.7811 60.2918H76.7812Z" fill="#0EA5E9"/>
<path d="M74.2076 65.4586L76.783 67.0889C77.636 65.7329 78.3979 64.3004 79.023 62.8376L76.2345 61.6338C75.6705 62.9443 74.9844 64.2393 74.2078 65.4586H74.2076Z" fill="#0EA5E9"/>
<path d="M70.6409 69.9988L72.8353 72.1167C73.9479 70.9739 74.9687 69.7245 75.8982 68.414L73.4141 66.6616C72.5758 67.8346 71.6463 68.9625 70.6411 69.9988L70.6409 69.9988Z" fill="#0EA5E9"/>
<path d="M43.9751 74.6322L46.9924 78.4415C40.699 77.7099 34.863 74.9212 30.322 70.3802C24.989 65.0472 22.0475 57.9456 22.0475 50.388C22.0475 48.9401 22.1541 47.4929 22.3828 46.0757L19.3655 45.6183C19.1214 47.203 19 48.8032 19 50.4028C19 58.7685 22.2607 66.6312 28.1732 72.5447C33.1253 77.4967 39.4643 80.5597 46.2922 81.4282L42.894 84.1256L44.7833 86.5178L52.463 80.4377L46.3829 72.758L43.9751 74.6322Z" fill="#0EA5E9"/>
<path d="M39.4333 24.2855L38.2596 21.4668C36.7815 22.0764 35.349 22.8229 33.9774 23.6458L35.5622 26.2513C36.7969 25.5049 38.0919 24.8342 39.4333 24.2857V24.2855Z" fill="#0EA5E9"/>
<path d="M44.9504 22.6241L44.3864 19.6377C42.817 19.9422 41.2624 20.354 39.7542 20.9026L40.7749 23.7676C42.1309 23.2793 43.5487 22.8984 44.9504 22.6241V22.6241Z" fill="#0EA5E9"/>
<path d="M34.3598 27.0278L32.6382 24.5135C31.3277 25.4129 30.0629 26.4181 28.89 27.5154L30.9777 29.74C32.0433 28.7649 33.1707 27.8507 34.3598 27.0278H34.3598Z" fill="#0EA5E9"/>
<path d="M23.816 40.4685L20.9665 39.4022C20.4024 40.8958 19.9605 42.4497 19.6406 44.0197L22.627 44.6293C22.9167 43.227 23.3131 41.8247 23.8161 40.4685H23.816Z" fill="#0EA5E9"/>
<path d="M29.9562 30.7616L27.7618 28.6437C26.6492 29.8019 25.613 31.0358 24.6989 32.3463L27.183 34.0987C28.0213 32.9251 28.9508 31.8125 29.956 30.7616L29.9562 30.7616Z" fill="#0EA5E9"/>
<path d="M26.3751 35.3015L23.7998 33.6711C22.9467 35.0272 22.1849 36.4597 21.5598 37.9224L24.3483 39.1263C24.927 37.8158 25.6131 36.5207 26.375 35.3015H26.3751Z" fill="#0EA5E9"/>
<path d="M63.9125 40.4475C63.825 38.6275 62.355 37.1575 60.5525 37.0875C59.3275 37.035 58.155 37 57.0175 37C48.215 37 42.1075 38.6975 38.7125 42.0925C32.2725 48.5325 33.2 57.6675 38.87 62.9175C38.8875 62.9175 38.8875 62.9175 38.8875 62.9175C41.53 55.5325 46.7975 50.3875 52.31 47.5175C51.9425 47.8325 44.085 53.7825 42.6675 65.455C44.505 66.295 46.5175 66.7675 48.5475 66.7675C52.135 66.7675 55.8275 65.3675 58.9075 62.305C62.74 58.455 64.4025 51.175 63.9125 40.4475Z" fill="#0EA5E9"/>
</svg>
