<svg width="100" height="100" viewBox="0 0 100 100" fill="none" xmlns="http://www.w3.org/2000/svg">
<rect width="100" height="100" rx="18.3709" fill="#E0F2FE"/>
<path d="M25.5157 14.006C23.525 14.2074 22 15.9029 22 17.9504V82.4335C22 84.6175 23.7389 86.3779 25.923 86.3779H73.8137C75.9977 86.3779 77.7367 84.6175 77.7367 82.4335V33.9854H63.3095C60.3555 33.9854 57.7787 31.8307 57.7787 28.9691V14.006H25.923C25.7865 14.006 25.6484 13.9925 25.5157 14.006ZM60.5226 14.006V28.9691C60.5226 30.145 61.6422 31.2415 63.3095 31.2415H77.7367L60.5226 14.006ZM39.6642 37.9942C42.0603 37.9959 44.4613 38.9325 46.2883 40.7596C48.8006 43.2718 49.5885 46.8375 48.6464 50.0205L67.9613 69.3568C69.6221 71.0175 69.6221 73.677 67.9613 75.3378L67.554 75.7451C65.8933 77.4058 63.2124 77.4058 61.5516 75.7451L42.1938 56.3659C39.0506 57.2366 35.5325 56.4573 33.0616 53.9863C31.5823 52.5071 30.7077 50.6574 30.4248 48.7342L37.349 51.5425C38.8955 52.1665 40.648 51.4168 41.272 49.8704L42.0009 48.0697C42.625 46.5232 41.8752 44.7707 40.3288 44.1467L32.7186 41.0811C32.8238 40.9652 32.9496 40.8501 33.0616 40.7381C34.8887 38.9111 37.2682 37.9925 39.6642 37.9942ZM65.5175 41.5742C66.4899 41.5757 67.4513 41.9431 68.1972 42.6889C69.6888 44.1806 69.7103 46.5994 68.2186 48.0911L58.6362 57.6307L57.1784 56.1729L67.1896 46.1618C67.3461 46.0053 67.3461 45.7609 67.1896 45.6044C67.0331 45.4479 66.7673 45.4479 66.6108 45.6044L56.5996 55.5941L55.292 54.3079L65.3031 44.2753C65.4596 44.1188 65.4596 43.8744 65.3031 43.7179C65.1467 43.5614 64.9022 43.5614 64.7458 43.7179L54.7346 53.7291L53.2554 52.2714L62.8164 42.6889C63.5623 41.9431 64.5451 41.5728 65.5175 41.5742ZM46.0525 62.6898L48.2177 64.855L43.7159 69.3568L43.1585 72.2723L35.5269 77.0099L33.8976 75.3592L38.6353 67.749L41.5507 67.1916L46.0525 62.6898ZM64.5743 70.0857C63.9944 70.0857 63.4089 70.3078 62.9665 70.7502C62.0816 71.6351 62.0816 73.0595 62.9665 73.9444C63.8514 74.8292 65.2757 74.8292 66.1606 73.9444C67.0455 73.0595 67.0455 71.6351 66.1606 70.7502C65.7182 70.3078 65.1542 70.0857 64.5743 70.0857Z" fill="#0EA5E9"/>
</svg>
