<svg width="100" height="100" viewBox="0 0 100 100" fill="none" xmlns="http://www.w3.org/2000/svg">
<rect width="100" height="100" rx="18.3709" fill="#E0F2FE"/>
<path d="M49.7417 15.0001C47.3477 15.0265 45.812 18.0376 43.5433 18.8008C41.2746 19.5641 38.2546 18.1056 36.3334 19.5309C34.4121 20.9563 34.9428 24.2612 33.557 26.2091C32.1712 28.1571 28.848 28.7607 28.1334 31.0406C27.4188 33.3205 29.8072 35.6952 29.8336 38.0839C29.8601 40.4725 27.5191 42.885 28.284 45.1486C29.049 47.4121 32.3867 47.9558 33.8153 49.8727C35.2439 51.7896 34.7899 55.1253 36.7423 56.5079C37.9572 57.3683 39.5771 57.0867 41.1759 56.9374V87L50.7102 73.9013L60.2231 87V56.8086C61.4885 56.8901 62.6954 56.8904 63.6451 56.1858C65.5664 54.7605 65.0572 51.4771 66.443 49.5291C67.8288 47.5812 71.152 46.956 71.8666 44.6761C72.5812 42.3963 70.1928 40.0215 70.1664 37.6329C70.1399 35.2443 72.4594 32.8317 71.6944 30.5682C70.9295 28.3047 67.6133 27.761 66.1847 25.8441C64.7561 23.9272 65.2101 20.6129 63.2577 19.2303C61.3053 17.8477 58.2898 19.3421 56.0047 18.6291C53.8625 17.9606 52.3501 15.3475 50.1937 15.043C50.0499 15.0227 49.8914 14.9984 49.7417 15.0001ZM49.7417 21.4421C50.833 21.4253 51.9431 21.511 53.0562 21.7212C61.9605 23.4028 67.8486 32.0128 66.1632 40.8969C64.4778 49.7809 55.8481 55.6556 46.9438 53.9741C38.0395 52.2925 32.1514 43.6825 33.8368 34.7984C35.3115 27.0249 42.1027 21.5598 49.7417 21.4421ZM49.2037 24.3624C43.1455 24.7116 37.88 29.1114 36.6992 35.3353C35.3063 42.6777 40.1227 49.7283 47.4819 51.1181C54.8411 52.5079 61.8863 47.7025 63.2792 40.36C64.6722 33.0176 59.8773 25.9884 52.5181 24.5986C52.2881 24.5552 52.0586 24.5012 51.8294 24.4698C50.9411 24.3479 50.0691 24.3126 49.2037 24.3624ZM49.8924 25.8226C50.135 25.8132 50.3815 25.839 50.6241 25.8441C50.764 25.847 50.9034 25.8371 51.0331 25.8656C51.422 25.9507 51.7492 26.1519 51.98 26.4024C52.2879 26.7364 52.4068 27.1705 52.3244 27.6049C52.242 28.0393 51.9774 28.3888 51.6572 28.6356C51.3371 28.8824 50.9501 29.0092 50.5381 29.0007C50.3594 28.997 50.2 29.0151 50.0215 29.0221C45.9542 29.0958 42.0769 32.8333 41.4987 36.8599C41.4418 37.2564 41.25 37.5975 40.9606 37.8691C40.6713 38.1407 40.2842 38.3456 39.8415 38.363C39.3987 38.3804 38.9798 38.1626 38.7008 37.8047C38.4218 37.4468 38.2724 36.9178 38.3565 36.366C39.2107 30.7621 44.0989 26.1363 49.8924 25.8226Z" fill="#2B9CED"/>
</svg>
