<svg width="16" height="16" viewBox="0 0 16 16" fill="none" xmlns="http://www.w3.org/2000/svg">
<path d="M4.12972 0H1.68421C0.754047 0 0 0.754047 0 1.68421C0 9.5906 6.4094 16 14.3158 16C15.246 16 16 15.246 16 14.3158V11.8703C16 11.1433 15.5574 10.4896 14.8825 10.2197L12.5397 9.28253C11.9334 9.04002 11.2429 9.1494 10.7413 9.56743L10.1361 10.0718C9.42973 10.6604 8.39107 10.6133 7.74091 9.96313L6.03687 8.25909C5.38671 7.60893 5.33959 6.57027 5.92822 5.86391L6.43257 5.25869C6.8506 4.75706 6.95998 4.06662 6.71747 3.46034L5.78034 1.11753C5.51036 0.442579 4.85666 0 4.12972 0Z" fill="#006490"/>
</svg>
