<svg width="70" height="70" viewBox="0 0 70 70" fill="none" xmlns="http://www.w3.org/2000/svg">
<rect width="70" height="70" rx="20" fill="#E0F2FE"/>
<path d="M34.8239 12.0001C33.1916 12.0181 32.1446 14.0758 30.5977 14.5974C29.0509 15.119 26.9918 14.1223 25.6818 15.0963C24.3719 16.0704 24.7337 18.3288 23.7889 19.66C22.844 20.9912 20.5782 21.4037 20.0909 22.9617C19.6037 24.5197 21.2322 26.1426 21.2502 27.7749C21.2682 29.4072 19.6721 31.0559 20.1937 32.6027C20.7152 34.1496 22.9909 34.5211 23.965 35.8311C24.939 37.141 24.6295 39.4206 25.9607 40.3654C26.789 40.9534 27.8935 40.7609 28.9836 40.6589V61.2029L35.4843 52.2516L41.9703 61.2029V40.5709C42.833 40.6266 43.6559 40.6268 44.3035 40.1453C45.6134 39.1712 45.2663 36.9275 46.2111 35.5963C47.156 34.2651 49.4218 33.8379 49.9091 32.2799C50.3963 30.7219 48.7678 29.099 48.7498 27.4667C48.7317 25.8344 50.3132 24.1857 49.7917 22.6389C49.2701 21.0921 47.0091 20.7205 46.035 19.4106C45.061 18.1006 45.3705 15.8357 44.0393 14.8909C42.7082 13.946 40.6521 14.9673 39.0941 14.48C37.6335 14.0232 36.6023 12.2375 35.1321 12.0294C35.0341 12.0155 34.9259 11.9989 34.8239 12.0001ZM34.8239 16.4023C35.568 16.3909 36.3249 16.4495 37.0837 16.5931C43.1549 17.7422 47.1695 23.6261 46.0204 29.6972C44.8712 35.7683 38.9874 39.783 32.9163 38.6339C26.8451 37.4847 22.8305 31.6008 23.9796 25.5297C24.9851 20.2175 29.6155 16.4828 34.8239 16.4023ZM34.4571 18.398C30.3265 18.6366 26.7364 21.6434 25.9313 25.8966C24.9816 30.9142 28.2655 35.7324 33.2831 36.6822C38.3007 37.6319 43.1043 34.348 44.054 29.3304C45.0038 24.3127 41.7345 19.5092 36.7169 18.5595C36.5601 18.5298 36.4036 18.4929 36.2473 18.4714C35.6417 18.3881 35.0471 18.364 34.4571 18.398ZM34.9266 19.3959C35.0921 19.3894 35.2601 19.4071 35.4256 19.4106C35.5209 19.4126 35.616 19.4058 35.7044 19.4252C35.9695 19.4834 36.1926 19.6209 36.35 19.7921C36.5599 20.0204 36.641 20.317 36.5848 20.6139C36.5286 20.9107 36.3482 21.1496 36.1299 21.3182C35.9116 21.4869 35.6478 21.5735 35.3669 21.5677C35.245 21.5652 35.1363 21.5775 35.0147 21.5824C32.2415 21.6327 29.5979 24.1868 29.2037 26.9385C29.1648 27.2094 29.0341 27.4426 28.8368 27.6282C28.6395 27.8138 28.3756 27.9538 28.0737 27.9657C27.7719 27.9775 27.4862 27.8287 27.296 27.5841C27.1058 27.3396 27.0039 26.978 27.0612 26.601C27.6436 22.7714 30.9765 19.6102 34.9266 19.3959Z" fill="#2B9CED"/>
</svg>
