<svg width="17" height="18" viewBox="0 0 17 18" fill="none" xmlns="http://www.w3.org/2000/svg">
<path d="M12.9802 11.2004L11.2658 11.0046C10.854 10.9574 10.449 11.0991 10.1588 11.3894L8.91675 12.6314C7.0065 11.6594 5.4405 10.1001 4.4685 8.18314L5.71725 6.93439C6.0075 6.64414 6.14925 6.23914 6.102 5.82739L5.90625 4.12639C5.82525 3.44464 5.2515 2.93164 4.563 2.93164H3.39525C2.6325 2.93164 1.998 3.56614 2.04525 4.32889C2.403 10.0934 7.01325 14.6969 12.771 15.0546C13.5338 15.1019 14.1682 14.4674 14.1682 13.7046V12.5369C14.175 11.8551 13.662 11.2814 12.9802 11.2004V11.2004Z" fill="url(#paint0_linear_147_41)"/>
<defs>
<linearGradient id="paint0_linear_147_41" x1="8.10554" y1="2.93164" x2="8.10554" y2="15.0571" gradientUnits="userSpaceOnUse">
<stop offset="0.583333" stop-color="#0EA5E9"/>
<stop offset="1" stop-color="#0C4A6E"/>
</linearGradient>
</defs>
</svg>
