<svg width="45" height="60" viewBox="0 0 45 60" fill="none" xmlns="http://www.w3.org/2000/svg">
<path d="M22.2044 8.06087e-05C19.7594 0.0270589 18.1911 3.10224 15.8741 3.88172C13.5571 4.6612 10.4729 3.17166 8.51073 4.62734C6.54858 6.08303 7.09055 9.45822 5.67529 11.4476C4.26003 13.437 0.866127 14.0535 0.136286 16.3819C-0.593547 18.7103 1.84568 21.1356 1.87272 23.575C1.89973 26.0144 -0.491109 28.4783 0.290149 30.79C1.0714 33.1017 4.48005 33.657 5.93905 35.6147C7.39806 37.5723 6.93442 40.979 8.92836 42.3911C10.1691 43.2697 11.8235 42.9822 13.4563 42.8297V60L23.1935 54.8936L32.9087 60V42.6981C34.201 42.7813 35.4336 42.7817 36.4036 42.0621C38.3657 40.6064 37.8457 37.2532 39.261 35.2638C40.6763 33.2744 44.0702 32.6359 44.8 30.3076C45.5298 27.9792 43.0906 25.5539 43.0636 23.1145C43.0365 20.675 45.4054 18.2111 44.6242 15.8994C43.8429 13.5877 40.4562 13.0325 38.9972 11.0748C37.5382 9.11712 38.0019 5.73236 36.0079 4.32032C34.014 2.90828 30.9343 4.43445 28.6006 3.70628C26.4128 3.02361 24.8683 0.354906 22.666 0.0439403C22.5192 0.023211 22.3572 -0.00159606 22.2044 8.06087e-05ZM22.2044 6.57913C23.3189 6.56196 24.4526 6.64954 25.5893 6.86422C34.6831 8.58157 40.6965 17.3748 38.9753 26.4478C37.254 35.5209 28.4407 41.5207 19.347 39.8033C10.2532 38.086 4.23977 29.2927 5.96103 20.2197C7.46714 12.2808 14.4028 6.69933 22.2044 6.57913ZM21.6549 9.56163C15.4678 9.91819 10.0903 14.4116 8.8844 20.7679C7.46181 28.2666 12.3807 35.4673 19.8965 36.8866C27.4122 38.306 34.6073 33.3983 36.0299 25.8996C37.4525 18.4009 32.5556 11.2222 25.0398 9.80286C24.805 9.7585 24.5706 9.7034 24.3365 9.67128C23.4293 9.54684 22.5388 9.51069 21.6549 9.56163ZM22.3582 11.0529C22.606 11.0432 22.8578 11.0697 23.1056 11.0748C23.2484 11.0778 23.3908 11.0677 23.5232 11.0967C23.9204 11.1837 24.2545 11.3892 24.4903 11.645C24.8047 11.9861 24.9262 12.4295 24.842 12.8731C24.7579 13.3167 24.4876 13.6737 24.1606 13.9257C23.8337 14.1778 23.4385 14.3073 23.0177 14.2985C22.8351 14.2948 22.6724 14.3133 22.4901 14.3205C18.3363 14.3957 14.3765 18.2128 13.786 22.325C13.7278 22.7299 13.532 23.0783 13.2365 23.3557C12.9409 23.6331 12.5457 23.8423 12.0935 23.8601C11.6413 23.8779 11.2135 23.6554 10.9286 23.2899C10.6436 22.9244 10.491 22.3841 10.5769 21.8206C11.4492 16.0974 16.4414 11.3732 22.3582 11.0529Z" fill="#329BCF"/>
</svg>
