<svg width="52" height="60" viewBox="0 0 52 60" fill="none" xmlns="http://www.w3.org/2000/svg">
<path d="M44.2157 11.788C40.0047 7.57696 34.5962 5.00515 28.7712 4.36189L31.772 1.97923L30.2088 0L23.8547 5.03055L28.8853 11.3846L30.8633 9.82099L28.5312 6.87071C33.776 7.45056 38.6424 9.77061 42.4373 13.5655C46.8497 17.9779 49.2834 23.8536 49.2834 30.1067C49.2834 31.3047 49.1952 32.5021 49.006 33.6874L51.5025 34.0658C51.7045 32.7547 51.8049 31.4307 51.8049 30.1072C51.8049 23.1856 49.1071 16.6795 44.2152 11.7874L44.2157 11.788Z" fill="#329BCF"/>
<path d="M39.0834 49.4217L40.5078 51.502C41.592 50.7579 42.6386 49.9262 43.609 49.0183L41.8816 47.1777C41 47.9973 40.0672 48.7535 39.0834 49.4217H39.0834Z" fill="#329BCF"/>
<path d="M34.8856 51.6908L35.8567 54.0229C37.0797 53.5185 38.2649 52.9137 39.3997 52.2201L38.0885 50.0643C37.0669 50.6947 35.9954 51.2368 34.8856 51.6907V51.6908Z" fill="#329BCF"/>
<path d="M30.3209 53.0651L30.7876 55.536C32.086 55.2841 33.3723 54.9434 34.6202 54.4895L33.7757 52.119C32.6537 52.5358 31.4807 52.8509 30.3209 53.0651V53.0651Z" fill="#329BCF"/>
<path d="M47.8072 38.3011L50.1649 39.1833C50.6315 37.9476 50.9972 36.6619 51.2619 35.3629L48.791 34.8585C48.5512 36.0194 48.2233 37.1791 47.8071 38.3011H47.8072Z" fill="#329BCF"/>
<path d="M45.6779 42.5759L47.8087 43.9249C48.5145 42.8029 49.1448 41.6177 49.662 40.4074L47.3549 39.4114C46.8882 40.4956 46.3205 41.5671 45.678 42.5759H45.6779Z" fill="#329BCF"/>
<path d="M42.7268 46.3325L44.5424 48.0848C45.463 47.1393 46.3076 46.1056 47.0767 45.0213L45.0214 43.5714C44.3277 44.5419 43.5587 45.4752 42.727 46.3325L42.7268 46.3325Z" fill="#329BCF"/>
<path d="M20.664 50.1662L23.1605 53.3179C17.9534 52.7125 13.1248 50.4052 9.36764 46.6481C4.95522 42.2357 2.52144 36.36 2.52144 30.1069C2.52144 28.9089 2.60967 27.7115 2.79889 26.539L0.302413 26.1605C0.100418 27.4717 0 28.7956 0 30.1191C0 37.0408 2.69782 43.5463 7.58974 48.4389C11.687 52.5362 16.9318 55.0704 22.5811 55.789L19.7695 58.0209L21.3327 60.0001L27.6867 54.9695L22.6562 48.6155L20.664 50.1662Z" fill="#329BCF"/>
<path d="M16.9062 8.51012L15.9351 6.17798C14.7121 6.68237 13.5269 7.29996 12.3921 7.98084L13.7033 10.1366C14.7249 9.51902 15.7963 8.96412 16.9062 8.51027V8.51012Z" fill="#329BCF"/>
<path d="M21.4709 7.13559L21.0042 4.66467C19.7058 4.91658 18.4195 5.2573 17.1716 5.7112L18.0162 8.08168C19.1381 7.67769 20.3111 7.36252 21.4709 7.13557V7.13559Z" fill="#329BCF"/>
<path d="M12.7084 10.779L11.284 8.69873C10.1997 9.44285 9.15319 10.2745 8.18274 11.1824L9.91011 13.023C10.7918 12.2162 11.7246 11.4599 12.7084 10.779H12.7084Z" fill="#329BCF"/>
<path d="M3.98474 21.8996L1.62705 21.0173C1.16038 22.2531 0.794699 23.5388 0.530029 24.8378L3.00095 25.3422C3.24067 24.1819 3.56861 23.0216 3.98478 21.8996H3.98474Z" fill="#329BCF"/>
<path d="M9.06495 13.8683L7.24931 12.116C6.32874 13.0743 5.47142 14.0952 4.71509 15.1795L6.7704 16.6294C7.46402 15.6583 8.2331 14.7378 9.0648 13.8683L9.06495 13.8683Z" fill="#329BCF"/>
<path d="M6.1021 17.6246L3.9713 16.2756C3.26549 17.3976 2.63514 18.5828 2.11792 19.7931L4.4251 20.7891C4.90396 19.7049 5.47162 18.6333 6.10195 17.6246H6.1021Z" fill="#329BCF"/>
<path d="M37.1599 21.8822C37.0875 20.3764 35.8712 19.1601 34.3799 19.1022C33.3663 19.0587 32.3962 19.0298 31.4551 19.0298C24.172 19.0298 19.1188 20.4343 16.3098 23.2432C10.9815 28.5716 11.7489 36.1297 16.4401 40.4735C16.4546 40.4735 16.4546 40.4735 16.4546 40.4735C18.641 34.3633 22.9992 30.1064 27.5602 27.7318C27.2561 27.9924 20.7549 32.9153 19.5821 42.573C21.1024 43.268 22.7675 43.6589 24.4471 43.6589C27.4154 43.6589 30.4705 42.5006 33.0188 39.9667C36.1898 36.7813 37.5653 30.7579 37.1599 21.8822Z" fill="#329BCF"/>
</svg>
