<svg width="46" height="60" viewBox="0 0 46 60" fill="none" xmlns="http://www.w3.org/2000/svg">
<path d="M3.1599 0.3993C1.52802 0.564402 0.277832 1.95432 0.277832 3.63284V56.4942C0.277832 58.2846 1.70337 59.7277 3.4938 59.7277H42.7532C44.5436 59.7277 45.9692 58.2846 45.9692 56.4942V16.7779H34.1421C31.7206 16.7779 29.6082 15.0115 29.6082 12.6657V0.3993H3.4938C3.3819 0.3993 3.26869 0.388295 3.1599 0.3993ZM31.8576 0.3993V12.6657C31.8576 13.6296 32.7753 14.5285 34.1421 14.5285H45.9692L31.8576 0.3993ZM14.7585 20.0641C16.7227 20.0655 18.6909 20.8333 20.1887 22.3311C22.2482 24.3906 22.8941 27.3136 22.1218 29.9229L37.9556 45.7743C39.317 47.1357 39.317 49.3159 37.9556 50.6773L37.6217 51.0112C36.2603 52.3727 34.0625 52.3727 32.7011 51.0112L16.8322 35.1247C14.2554 35.8386 11.3714 35.1997 9.34581 33.174C8.13315 31.9614 7.41618 30.4451 7.18425 28.8685L12.8605 31.1707C14.1282 31.6822 15.5649 31.0676 16.0765 29.7999L16.674 28.3237C17.1856 27.056 16.571 25.6193 15.3033 25.1078L9.06463 22.5947C9.15088 22.4997 9.25403 22.4053 9.34581 22.3136C10.8436 20.8158 12.7943 20.0628 14.7585 20.0641ZM35.9522 22.9989C36.7493 23.0001 37.5375 23.3013 38.1489 23.9128C39.3718 25.1356 39.3893 27.1185 38.1665 28.3413L30.3111 36.1616L29.1161 34.9666L37.323 26.7597C37.4512 26.6314 37.4512 26.431 37.323 26.3028C37.1947 26.1745 36.9767 26.1745 36.8485 26.3028L28.6416 34.4921L27.5696 33.4376L35.7765 25.2132C35.9048 25.0849 35.9048 24.8846 35.7765 24.7563C35.6482 24.628 35.4478 24.628 35.3196 24.7563L27.1127 32.9632L25.9001 31.7682L33.738 23.9128C34.3494 23.3013 35.1551 22.9978 35.9522 22.9989ZM19.9954 40.3089L21.7703 42.0839L18.0799 45.7743L17.623 48.1643L11.3668 52.0481L10.0312 50.6949L13.9149 44.4563L16.3049 43.9994L19.9954 40.3089ZM35.179 46.3718C34.7036 46.3718 34.2237 46.5539 33.861 46.9166C33.1356 47.642 33.1356 48.8097 33.861 49.5351C34.5864 50.2605 35.754 50.2605 36.4794 49.5351C37.2048 48.8097 37.2048 47.642 36.4794 46.9166C36.1167 46.5539 35.6544 46.3718 35.179 46.3718Z" fill="#329BCF"/>
</svg>
