<svg width="70" height="70" viewBox="0 0 70 70" fill="none" xmlns="http://www.w3.org/2000/svg">
<rect width="70" height="70" rx="20" fill="#E0F2FE"/>
<path d="M21.8923 16.0032C20.8208 16.1116 20 17.0242 20 18.1263V52.834C20 54.0095 20.936 54.9571 22.1115 54.9571H47.8885C49.064 54.9571 50 54.0095 50 52.834V26.7571H42.2346C40.6447 26.7571 39.2577 25.5973 39.2577 24.0571V16.0032H22.1115C22.0381 16.0032 21.9637 15.996 21.8923 16.0032ZM40.7346 16.0032V24.0571C40.7346 24.69 41.3372 25.2801 42.2346 25.2801H50L40.7346 16.0032ZM29.5077 28.9148C30.7974 28.9156 32.0897 29.4198 33.0731 30.4032C34.4253 31.7554 34.8494 33.6746 34.3423 35.3878L44.7385 45.7955C45.6323 46.6894 45.6323 48.1209 44.7385 49.0148L44.5192 49.234C43.6254 50.1279 42.1823 50.1279 41.2885 49.234L30.8692 38.8032C29.1774 39.2719 27.2838 38.8524 25.9538 37.5224C25.1576 36.7262 24.6869 35.7307 24.5346 34.6955L28.2615 36.2071C29.0939 36.543 30.0372 36.1394 30.3731 35.3071L30.7654 34.3378C31.1013 33.5055 30.6977 32.5622 29.8654 32.2263L25.7692 30.5763C25.8259 30.5139 25.8936 30.4519 25.9538 30.3917C26.9373 29.4083 28.218 28.9139 29.5077 28.9148ZM43.4231 30.8417C43.9465 30.8425 44.4639 31.0402 44.8654 31.4417C45.6683 32.2446 45.6798 33.5465 44.8769 34.3494L39.7192 39.484L38.9346 38.6994L44.3231 33.3109C44.4073 33.2267 44.4073 33.0951 44.3231 33.0109C44.2389 32.9267 44.0958 32.9267 44.0115 33.0109L38.6231 38.3878L37.9192 37.6955L43.3077 32.2955C43.3919 32.2113 43.3919 32.0797 43.3077 31.9955C43.2235 31.9113 43.0919 31.9113 43.0077 31.9955L37.6192 37.384L36.8231 36.5994L41.9692 31.4417C42.3707 31.0402 42.8997 30.8409 43.4231 30.8417ZM32.9462 42.2071L34.1115 43.3724L31.6885 45.7955L31.3885 47.3647L27.2808 49.9147L26.4038 49.0263L28.9538 44.9301L30.5231 44.6301L32.9462 42.2071ZM42.9154 46.1878C42.6033 46.1878 42.2881 46.3074 42.05 46.5455C41.5737 47.0218 41.5737 47.7885 42.05 48.2648C42.5263 48.741 43.2929 48.741 43.7692 48.2648C44.2455 47.7885 44.2455 47.0218 43.7692 46.5455C43.5311 46.3074 43.2275 46.1878 42.9154 46.1878Z" fill="#0EA5E9"/>
</svg>
