<svg width="70" height="69" viewBox="0 0 70 69" fill="none" xmlns="http://www.w3.org/2000/svg">
<rect y="-1" width="70" height="70" rx="20" fill="#E0F2FE"/>
<path d="M43.9597 40.661C44.5038 39.7648 44.9089 38.7728 45.1648 37.7279H48.0341V32.6506H45.1648C44.9089 31.6051 44.5033 30.624 43.9597 29.7278L45.9755 27.7011L42.3916 24.1065L40.365 26.1331C39.4688 25.589 38.4876 25.1731 37.4318 24.9172V22.0587H32.3546V24.9172C31.3091 25.1731 30.328 25.589 29.4318 26.1331L27.4051 24.1065L23.8104 27.7011L25.8371 29.7278C25.293 30.624 24.877 31.6052 24.6212 32.6506H21.7627V37.7279H24.6212C24.877 38.7733 25.293 39.7653 25.8371 40.661L23.8104 42.6768L27.4051 46.2715L29.4318 44.2449C30.328 44.789 31.3092 45.2049 32.3546 45.4608V48.3193H37.4318V45.4608C38.4876 45.2049 39.4693 44.789 40.365 44.2449L42.3916 46.2715L45.9755 42.6768L43.9597 40.661ZM34.893 40.8319C31.7782 40.8319 29.2501 38.3039 29.2501 35.189C29.2501 32.0742 31.7781 29.546 34.893 29.546C38.0182 29.546 40.536 32.074 40.536 35.189C40.5355 38.3038 38.0183 40.8319 34.893 40.8319Z" fill="#0EA5E9"/>
<path d="M50.4993 19.7975C46.9366 16.2348 42.3608 14.0589 37.4326 13.5147L39.9714 11.4989L38.6489 9.82434L33.2731 14.0804L37.5291 19.4562L39.2026 18.1333L37.2295 15.6372C41.6669 16.1278 45.784 18.0907 48.9947 21.3013C52.7277 25.0344 54.7868 30.0055 54.7868 35.2958C54.7868 36.3094 54.7122 37.3224 54.5521 38.3253L56.6642 38.6455C56.8351 37.5361 56.9201 36.416 56.9201 35.2963C56.9201 29.4403 54.6376 23.9359 50.4988 19.797L50.4993 19.7975Z" fill="#0EA5E9"/>
<path d="M46.1571 51.6372L47.3622 53.3972C48.2795 52.7676 49.1649 52.064 49.986 51.2959L48.5246 49.7386C47.7786 50.432 46.9895 51.0718 46.1571 51.6372H46.1571Z" fill="#0EA5E9"/>
<path d="M42.6057 53.5568L43.4273 55.5299C44.462 55.1032 45.4647 54.5915 46.4248 54.0046L45.3155 52.1808C44.4512 52.7141 43.5447 53.1727 42.6057 53.5567V53.5568Z" fill="#0EA5E9"/>
<path d="M38.7438 54.7196L39.1386 56.8101C40.2371 56.597 41.3254 56.3087 42.3811 55.9247L41.6666 53.9192C40.7174 54.2718 39.725 54.5384 38.7438 54.7196V54.7196Z" fill="#0EA5E9"/>
<path d="M53.5378 42.2287L55.5325 42.9751C55.9273 41.9297 56.2367 40.8419 56.4606 39.7429L54.3701 39.3162C54.1673 40.2983 53.8899 41.2794 53.5378 42.2287H53.5378Z" fill="#0EA5E9"/>
<path d="M51.7363 45.8454L53.5391 46.9867C54.1362 46.0374 54.6695 45.0347 55.1071 44.0108L53.1551 43.1681C52.7603 44.0854 52.2801 44.992 51.7365 45.8454H51.7363Z" fill="#0EA5E9"/>
<path d="M49.2396 49.0235L50.7757 50.506C51.5546 49.7061 52.2691 48.8315 52.9198 47.9142L51.1809 46.6875C50.5941 47.5086 49.9434 48.2981 49.2398 49.0235L49.2396 49.0235Z" fill="#0EA5E9"/>
<path d="M30.5736 52.2669L32.6857 54.9334C28.2803 54.4213 24.1951 52.4692 21.0164 49.2905C17.2833 45.5574 15.2242 40.5863 15.2242 35.296C15.2242 34.2824 15.2989 33.2693 15.459 32.2773L13.3469 31.9572C13.176 33.0665 13.091 34.1866 13.091 35.3063C13.091 41.1623 15.3735 46.6662 19.5122 50.8056C22.9787 54.2721 27.416 56.4161 32.1956 57.0241L29.8168 58.9123L31.1393 60.5868L36.5151 56.3308L32.259 50.955L30.5736 52.2669Z" fill="#0EA5E9"/>
<path d="M27.3943 17.0242L26.5727 15.0511C25.538 15.4779 24.5353 16.0004 23.5752 16.5764L24.6845 18.4003C25.5488 17.8778 26.4553 17.4083 27.3943 17.0244V17.0242Z" fill="#0EA5E9"/>
<path d="M31.2563 15.8614L30.8614 13.7709C29.7629 13.984 28.6746 14.2723 27.6189 14.6563L28.3334 16.6618C29.2826 16.32 30.2751 16.0534 31.2563 15.8614V15.8614Z" fill="#0EA5E9"/>
<path d="M23.8428 18.9438L22.6378 17.1838C21.7204 17.8134 20.835 18.517 20.014 19.2852L21.4754 20.8424C22.2213 20.1598 23.0105 19.5199 23.8429 18.9438H23.8428Z" fill="#0EA5E9"/>
<path d="M16.4622 28.3524L14.4675 27.606C14.0727 28.6514 13.7633 29.7392 13.5394 30.8382L15.6299 31.2649C15.8327 30.2833 16.1101 29.3017 16.4622 28.3524H16.4622Z" fill="#0EA5E9"/>
<path d="M20.7604 21.5575L19.2243 20.075C18.4454 20.8857 17.7201 21.7495 17.0802 22.6668L18.8191 23.8935C19.4059 23.0719 20.0566 22.2932 20.7602 21.5575L20.7604 21.5575Z" fill="#0EA5E9"/>
<path d="M18.2536 24.7355L16.4508 23.5942C15.8537 24.5435 15.3204 25.5462 14.8828 26.5701L16.8348 27.4128C17.2399 26.4955 17.7202 25.589 18.2535 24.7355H18.2536Z" fill="#0EA5E9"/>
</svg>
